<svg xmlns="http://www.w3.org/2000/svg" xmlns:xlink="http://www.w3.org/1999/xlink" viewBox="0 0 1366 199"><defs><path id="6acca" d="M1366 853.001H0V654.142a4029.369 4029.369 0 0 0 167.613 25.083 4048.14 4048.14 0 0 0 169.82 18.106 4072.6 4072.6 0 0 0 171.852 10.976A4101.17 4101.17 0 0 0 683 712.001a4101.17 4101.17 0 0 0 173.715-3.693 4072.597 4072.597 0 0 0 171.853-10.976 4048.116 4048.116 0 0 0 169.819-18.106A4028.632 4028.632 0 0 0 1366 654.143V853z"/></defs><g><g transform="translate(0 -654)"><use fill="#e2edf1" xlink:href="#6acca"/></g></g></svg>