<svg id="Layer_1" data-name="Layer 1" xmlns="http://www.w3.org/2000/svg" viewBox="0 0 284.17 104.36">
  <defs>
    <style>
      .cls-1, .cls-2 {
        fill: #fff;
      }

      .cls-2 {
        opacity: 0.6;
      }
    </style>
  </defs>
  <title>Graduate Coach Logo</title>
  <g>
    <path class="cls-1" d="M51.65,0a51.9,51.9,0,1,0,50.77,39.59l-26.81-.16h0l-23.31-.16V64.68l23.18,0,0,0a26.78,26.78,0,1,1,.15-25.34A51.93,51.93,0,0,1,89.16,15.71,51.78,51.78,0,0,0,52.25,0Z"/>
    <path class="cls-1" d="M102.27,64.93a52.43,52.43,0,0,0,.15-25.34l-26.8-.16-23.31-.16V64.68l23.18,0,0,0Z"/>
    <path class="cls-2" d="M125.93,25.64a26.75,26.75,0,0,1,23.36,13.7h26.93a52,52,0,0,0-100.61.09l26.81.16a26.77,26.77,0,0,1,23.51-14"/>
    <path class="cls-2" d="M149.75,64.63a26.77,26.77,0,0,1-47.48.3A52,52,0,0,1,88.72,88.65a51.95,51.95,0,0,0,87.71-24Z"/>
    <path class="cls-1" d="M124.68,60.76h-1.27l-.24-3.39h0a6.73,6.73,0,0,1-6.45,3.78c-5.87,0-8.79-4.62-8.79-9.7s2.92-9.71,8.79-9.71c3.92,0,7.1,2.11,7.78,6.18h-1.77a5.82,5.82,0,0,0-6-4.67c-4.93,0-7,4.13-7,8.2s2.08,8.19,7,8.19c4.13,0,6.53-2.9,6.45-6.84h-6.34V51.29h7.9Z"/>
    <path class="cls-1" d="M127.79,47.3h1.51v3.15h0a5,5,0,0,1,5.09-3.33v1.64a4.63,4.63,0,0,0-5,4.83v7.17h-1.64Z"/>
    <path class="cls-1" d="M135.85,51.42c.15-3.16,2.37-4.51,5.45-4.51,2.37,0,5,.73,5,4.33v7.15a.87.87,0,0,0,1,1,1.37,1.37,0,0,0,.52-.11v1.39a4.93,4.93,0,0,1-1.07.1c-1.67,0-1.93-.94-1.93-2.35h-.05a5.13,5.13,0,0,1-4.9,2.74c-2.48,0-4.52-1.22-4.52-3.94,0-3.78,3.68-3.91,7.23-4.33,1.36-.15,2.11-.34,2.11-1.82,0-2.22-1.59-2.77-3.52-2.77s-3.55.94-3.6,3.13Zm8.76,2h-.05c-.21.4-.94.53-1.38.6-2.79.5-6.26.47-6.26,3.11a2.8,2.8,0,0,0,3,2.66c2.5,0,4.72-1.59,4.69-4.23Z"/>
    <path class="cls-1" d="M161.39,60.76h-1.52V58.2h-.05a5.32,5.32,0,0,1-4.8,2.95c-4.1,0-6.05-3.31-6.05-7.12s1.95-7.12,6.05-7.12a4.79,4.79,0,0,1,4.67,3h.05V42.13h1.65Zm-6.37-1c3.5,0,4.72-3,4.72-5.74s-1.22-5.74-4.72-5.74c-3.13,0-4.41,3-4.41,5.74s1.28,5.74,4.41,5.74"/>
    <path class="cls-1" d="M175.42,60.76h-1.51V58.33h-.06a5,5,0,0,1-4.64,2.82c-3.39,0-4.72-2-4.72-5.11V47.3h1.64v8.76c.08,2.43,1,3.71,3.6,3.71,2.82,0,4.05-2.66,4.05-5.4V47.3h1.64Z"/>
    <path class="cls-1" d="M178.37,51.42c.15-3.16,2.37-4.51,5.45-4.51,2.37,0,5,.73,5,4.33v7.15a.88.88,0,0,0,1,1,1.37,1.37,0,0,0,.52-.11v1.39a4.93,4.93,0,0,1-1.07.1c-1.67,0-1.93-.94-1.93-2.35h0a5.13,5.13,0,0,1-4.91,2.74c-2.47,0-4.51-1.22-4.51-3.94,0-3.78,3.68-3.91,7.23-4.33,1.35-.15,2.11-.34,2.11-1.82,0-2.22-1.59-2.77-3.52-2.77s-3.55.94-3.6,3.13Zm8.76,2h0c-.21.4-.94.53-1.38.6-2.8.5-6.27.47-6.27,3.11a2.81,2.81,0,0,0,3,2.66c2.51,0,4.73-1.59,4.7-4.23Z"/>
    <path class="cls-1" d="M194.67,47.3h2.74v1.38h-2.74v9.08c0,1.07.16,1.7,1.33,1.77a13.31,13.31,0,0,0,1.41-.07v1.4c-.5,0-1,.06-1.46.06-2.19,0-2.95-.73-2.92-3V48.68h-2.35V47.3H193v-4h1.64Z"/>
    <path class="cls-1" d="M200.75,54.47c0,2.4,1.27,5.3,4.43,5.3a4.1,4.1,0,0,0,4.23-3.45h1.64c-.7,3.06-2.48,4.83-5.87,4.83-4.28,0-6.08-3.29-6.08-7.12,0-3.55,1.8-7.12,6.08-7.12s6,3.78,5.92,7.56Zm8.71-1.38c-.08-2.48-1.62-4.8-4.28-4.8s-4.17,2.35-4.43,4.8Z"/>
    <path class="cls-1" d="M227.25,47.77a5.66,5.66,0,0,0-5.71-4.52c-4.93,0-7,4.13-7,8.2s2.09,8.19,7,8.19c3.44,0,5.63-2.66,6-6h1.78c-.5,4.57-3.4,7.49-7.75,7.49-5.87,0-8.79-4.62-8.79-9.7s2.92-9.71,8.79-9.71c3.52,0,7,2.11,7.48,6Z"/>
    <path class="cls-1" d="M243.74,54c0,3.86-2.25,7.12-6.37,7.12S231,57.89,231,54s2.24-7.12,6.36-7.12,6.37,3.26,6.37,7.12m-11.09,0c0,2.87,1.56,5.74,4.72,5.74s4.72-2.87,4.72-5.74-1.56-5.74-4.72-5.74-4.72,2.87-4.72,5.74"/>
    <path class="cls-1" d="M246,51.42c.16-3.16,2.37-4.51,5.45-4.51,2.38,0,5,.73,5,4.33v7.15a.88.88,0,0,0,1,1,1.37,1.37,0,0,0,.52-.11v1.39a5.06,5.06,0,0,1-1.07.1c-1.67,0-1.93-.94-1.93-2.35h-.06a5.12,5.12,0,0,1-4.9,2.74c-2.48,0-4.51-1.22-4.51-3.94,0-3.78,3.68-3.91,7.22-4.33,1.36-.15,2.12-.34,2.12-1.82,0-2.22-1.6-2.77-3.53-2.77s-3.54.94-3.6,3.13Zm8.77,2h-.06c-.2.4-.93.53-1.38.6-2.79.5-6.26.47-6.26,3.11a2.8,2.8,0,0,0,3,2.66c2.5,0,4.72-1.59,4.7-4.23Z"/>
    <path class="cls-1" d="M269.22,51.53a3.66,3.66,0,0,0-3.81-3.24c-3.15,0-4.72,2.87-4.72,5.74s1.57,5.74,4.72,5.74a4,4,0,0,0,3.92-3.84H271c-.44,3.24-2.56,5.22-5.56,5.22-4.12,0-6.36-3.26-6.36-7.12s2.24-7.12,6.36-7.12c2.87,0,5.09,1.54,5.46,4.62Z"/>
    <path class="cls-1" d="M273.24,42.13h1.64v7.49h.05a4.56,4.56,0,0,1,4.31-2.71c3.78,0,4.93,2,4.93,5.19v8.66h-1.64v-8.4c0-2.32-.76-4.07-3.42-4.07s-4.18,2-4.23,4.62v7.85h-1.64Z"/>
  </g>
</svg>
