<svg xmlns="http://www.w3.org/2000/svg" xmlns:xlink="http://www.w3.org/1999/xlink" width="16" height="17" viewBox="0 0 16 17"><defs><path id="hv6la" d="M395.093 480.852c-1.029-.88-2.073-1.413-3.089-.534l-.606.53c-.444.386-1.27 2.187-4.46-1.484-3.191-3.666-1.293-4.237-.848-4.62l.61-.53c1.01-.881.63-1.99-.1-3.13l-.44-.692c-.732-1.138-1.53-1.886-2.543-1.007l-.547.479c-.448.326-1.7 1.387-2.004 3.402-.365 2.417.788 5.186 3.43 8.223 2.637 3.04 5.22 4.566 7.667 4.539 2.034-.022 3.262-1.113 3.646-1.51l.55-.479c1.01-.878.382-1.773-.647-2.655z"/></defs><g><g transform="translate(-381 -469)"><use fill="#b8ca36" xlink:href="#hv6la"/></g></g></svg>