<svg xmlns="http://www.w3.org/2000/svg" xmlns:xlink="http://www.w3.org/1999/xlink" width="19" height="11" viewBox="0 0 19 11"><defs><path id="yzxpa" d="M1123.052 2036.74a1.001 1.001 0 0 1 0-1.414l2.537-2.538h-14.394a1 1 0 0 1 0-2h14.407l-2.55-2.55a1.001 1.001 0 0 1 0-1.414c.39-.39 1.023-.39 1.414 0l4.241 4.242a.997.997 0 0 1 .293.716.997.997 0 0 1-.293.716l-4.241 4.241a.997.997 0 0 1-1.414 0z"/></defs><g><g transform="translate(-1110 -2026)"><use fill="#b8ca36" xlink:href="#yzxpa"/></g></g></svg>