<svg xmlns="http://www.w3.org/2000/svg" viewBox="0 0 14.457 12.76">
  <defs>
    <style>
      .cls-1 {
        fill: #b8ca36;
      }
    </style>
  </defs>
  <g id="right-quote-sign" transform="translate(14.455 69.957) rotate(180)">
    <path id="Path_26" data-name="Path 26" class="cls-1" d="M561.668,57.2h-4.507a.742.742,0,0,0-.741.741v4.507a.742.742,0,0,0,.741.741h2.157a4.905,4.905,0,0,1-.821,2.835,4.465,4.465,0,0,1-1.858,1.391.74.74,0,0,0-.368.995l.534,1.127a.741.741,0,0,0,.965.362,8.241,8.241,0,0,0,2.486-1.613,6.259,6.259,0,0,0,1.695-2.7,14.611,14.611,0,0,0,.458-4.1V57.938A.742.742,0,0,0,561.668,57.2Z" transform="translate(-547.955)"/>
    <path id="Path_27" data-name="Path 27" class="cls-1" d="M1.571,69.893a8.381,8.381,0,0,0,2.474-1.61A6.225,6.225,0,0,0,5.751,65.6a14.592,14.592,0,0,0,.458-4.114V57.938a.742.742,0,0,0-.741-.741H.96a.742.742,0,0,0-.741.741v4.507a.742.742,0,0,0,.741.741H3.117A4.905,4.905,0,0,1,2.3,66.022,4.466,4.466,0,0,1,.438,67.412a.74.74,0,0,0-.368.995L.6,69.531A.743.743,0,0,0,1.571,69.893Z" transform="translate(0 0)"/>
  </g>
</svg>
