<?xml version="1.0" encoding="utf-8"?>
<!-- Generator: Adobe Illustrator 25.4.1, SVG Export Plug-In . SVG Version: 6.00 Build 0)  -->
<svg version="1.1" id="Layer_1" xmlns="http://www.w3.org/2000/svg" xmlns:xlink="http://www.w3.org/1999/xlink" x="0px" y="0px"
	 viewBox="0 0 148 89" style="enable-background:new 0 0 148 89;" xml:space="preserve">
<style type="text/css">
	.st0{fill-rule:evenodd;clip-rule:evenodd;fill:#161112;}
	.st1{fill-rule:evenodd;clip-rule:evenodd;fill:#C0282E;}
	.st2{fill:#333333;}
	.st3{clip-path:url(#SVGID_00000121973739382996036450000016031975806781165502_);}
	.st4{fill-rule:evenodd;clip-rule:evenodd;fill:#922029;}
</style>
<g>
	<g>
		<path class="st0" d="M97.1,42.3c-3.2,0.3-2.6,2.8-1.7,3.3c0.1-1.1,1.1-1.7,2-0.9c1.1,0.9,0,3.8-4.1,3.4c-5.1-0.6-6.1-6.9-12.8-6.9
			c-3,0-4.9,0.5-6,1.7c-1.1-1.1-3-1.7-5.9-1.7c-6.7,0-7.8,6.3-12.8,6.9c-4.1,0.5-5.2-2.5-4.1-3.4c0.9-0.9,1.9-0.1,2,0.9
			c0.9-0.6,1.5-3-1.7-3.3c-2.7-0.1-5,2-5.2,4.7c0,0.2,0,0.3,0,0.5c0,2.5,1.6,7.2,10.6,7.2c7,0,14.4-2.3,17.2-5.8
			c2.8,3.5,10.1,5.8,17.2,5.8c8.9,0,10.4-4.9,10.6-7.2c0-2.8-2.2-5.1-5.1-5.2C97.3,42.3,97.2,42.3,97.1,42.3"/>
	</g>
	<path class="st0" d="M88.4,3l0.3,0.6l6,12.1c0.1,0.4,0.4,0.8,0.5,1.2c0.2,0.7-0.1,1.4-0.8,1.6c-0.4,0.1-0.8,0.1-1.1-0.1L92.6,18
		L88.4,3"/>
	<g>
		<path class="st1" d="M66.3,0.5h-2.6c-1.7,0-2.2,1.1-2.8,2.8l-4.9,20.4l0,0v0.1c0.2,2.1,1.9,3.7,4,3.6c1.6-0.1,3.1-1.1,3.7-2.6
			v-1.1l0,0l4-23.2H66.3z"/>
		<path class="st1" d="M77.5,0.5h-0.7h-3h-1.9l-1.4,23.1l0,0v1.1c0.7,1.5,2.1,2.5,3.8,2.6c1.7,0.1,3.2-1,3.8-2.6v-1.1l0,0L77.5,0.5z
			"/>
		<path class="st1" d="M92.7,23.7L88.4,3.4c-0.5-1.7-1.3-2.8-2.8-2.8h-4.2l3.8,23.2l0,0v1.1c0.6,1.5,2.1,2.5,3.7,2.6
			C90.9,27.5,92.5,25.9,92.7,23.7L92.7,23.7L92.7,23.7z"/>
	</g>
	<path class="st2" d="M3.5,88V76.6H0.6v-3.3h9.6v3.3H7.4v11.5L3.5,88L3.5,88z M21.8,76.9V88h-3.1v-1.2c-0.7,1.1-1.9,1.7-3.1,1.6
		c-3.8,0-4.2-3.1-4.2-4.6v-6.9h3.4v6c0,1.2,0.3,2.3,1.8,2.3c1.7,0,1.9-1.2,1.9-2.3v-6H21.8z M25.1,88V76.9h3.1v1.2
		c0.5-1.1,1.6-1.8,2.8-1.6v3.4h-0.1c-1.7,0-2.5,0.6-2.5,2.2v6H25.1z M33.5,88V73.2h3.3v7.7l3.1-4.1h4l-4.1,5l4.1,6.2h-3.8l-3.2-5.4
		v5.4L33.5,88z M46.1,75.8v-2.5h3.3v2.5H46.1z M46.1,88V76.9h3.3V88H46.1z M60.7,80h-3.3c0-0.2-0.1-0.8-1-0.8c-0.7,0-1,0.4-1,0.7
		c0,0.5,0.8,0.8,1.7,1.1c1.9,0.5,3.9,1.1,3.9,3.5s-2.1,3.9-4.5,3.9c-1.7,0-4.2-0.8-4.5-3.7h3.3c0.1,0.6,0.7,1,1.3,1s1.2-0.3,1.2-0.9
		c0-0.8-0.8-0.9-3-1.7c-1.5-0.4-2.7-1.3-2.7-2.8c0-2.3,2-3.8,4.3-3.8C57.9,76.6,60.4,77.1,60.7,80L60.7,80z M63.7,88V73.2H67V78
		c0.6-1,1.8-1.5,2.9-1.4c1.3-0.1,2.6,0.5,3.3,1.6c0.6,1.2,0.9,2.4,0.8,3.7V88h-3.3v-6c0-0.6-0.1-1.1-0.3-1.6
		c-0.3-0.5-0.9-0.8-1.4-0.7c-0.7-0.1-1.3,0.3-1.6,0.9c-0.2,0.4-0.3,0.9-0.2,1.3V88C67.2,88,63.7,88,63.7,88z M84.4,73.2h4.9
		c2.8,0,3.8,0.4,4.6,1.1c1.2,1,1.8,2.4,1.8,3.9c0,1.5-0.5,2.9-1.6,3.9c-1,0.9-2,1.3-4.3,1.3h-1.5V88h-3.8L84.4,73.2z M88.2,76.6V80
		h1.4c0.5,0,1-0.1,1.5-0.2c0.6-0.3,1-0.9,0.9-1.6c0.1-0.7-0.3-1.3-0.9-1.5c-0.5-0.2-1-0.2-1.6-0.2L88.2,76.6z M96.9,82.5L96.9,82.5
		c0-3.3,2.7-6,6-6s6,2.7,6,6s-2.7,6-6,6c-3.2,0.1-5.9-2.4-6-5.7C96.9,82.7,96.9,82.5,96.9,82.5L96.9,82.5z M100.2,82.5L100.2,82.5
		c0.1,1.5,1.4,2.6,2.9,2.5c1.5-0.1,2.6-1.4,2.5-2.9c-0.1-1.4-1.3-2.5-2.7-2.5C101.4,79.7,100.2,80.9,100.2,82.5
		C100.2,82.4,100.2,82.4,100.2,82.5L100.2,82.5z M111.6,88.1V76.9h3.1v1.2c0.5-1.1,1.6-1.8,2.8-1.6v3.4h-0.1c-1.7,0-2.5,0.6-2.5,2.2
		v6L111.6,88.1z M120.8,88.1v-8.6h-1.7v-2.6h1.7v-3.7h3.3v3.7h1.6v2.5h-1.6v8.5L120.8,88.1z M138.7,83.6h-8.2c0.2,1.2,1.3,2.1,2.6,2
		c0.8,0,1.6-0.3,2-1h3.4c-0.5,1.1-1.3,2.1-2.3,2.8c-0.9,0.7-2,1-3.2,1c-3.3-0.4-5.7-3.3-5.3-6.5c0.3-2.8,2.5-5,5.2-5.3
		c1.6,0,3.1,0.6,4.2,1.8C138.4,79.9,139,81.7,138.7,83.6L138.7,83.6z M130.4,81.1h5c-0.5-1.4-2-2.1-3.4-1.6
		C131.3,79.8,130.7,80.3,130.4,81.1z M141.5,88.1V76.9h3.1v1.2c0.5-1.1,1.6-1.7,2.8-1.6v3.4h-0.1c-1.7,0-2.5,0.6-2.5,2.2v6
		L141.5,88.1z"/>
	<g>
		<g>
			<defs>
				<rect id="SVGID_1_" x="53.4" y="23.7" width="43.3" height="4.9"/>
			</defs>
			<clipPath id="SVGID_00000168816121784199473900000000155810153815293119_">
				<use xlink:href="#SVGID_1_"  style="overflow:visible;"/>
			</clipPath>
			<g style="clip-path:url(#SVGID_00000168816121784199473900000000155810153815293119_);">
				<path class="st4" d="M66.3,0.6h-2.6c-1.7,0-2.2,1.1-2.8,2.8l-4.9,20.4l0,0v0.1c0.2,2.1,1.9,3.7,4,3.6c1.6-0.1,3.1-1.1,3.7-2.6
					v-1.1l0,0l4.1-23.2C67.8,0.6,66.3,0.6,66.3,0.6z"/>
				<path class="st4" d="M77.5,0.6h-0.7h-3h-1.9l-1.4,23.1l0,0v1.1c0.7,1.5,2.1,2.5,3.8,2.6c1.7,0.1,3.2-1,3.8-2.6v-1.1l0,0
					L77.5,0.6z"/>
				<path class="st4" d="M92.7,23.8L88.4,3.5c-0.5-1.7-1.3-2.8-2.8-2.8h-4.2l3.8,23.2l0,0V25c0.6,1.5,2.1,2.5,3.7,2.6
					C90.9,27.6,92.5,26,92.7,23.8L92.7,23.8L92.7,23.8z"/>
			</g>
		</g>
	</g>
</g>
</svg>
