<svg version="1.2" xmlns="http://www.w3.org/2000/svg" viewBox="0 0 136 136" width="136" height="136">
	<title>Ellipse</title>
	<defs>
		<clipPath clipPathUnits="userSpaceOnUse" id="cp1">
			<path d="m68 0.75c37.28 0 67.5 30.22 67.5 67.5 0 37.28-30.22 67.5-67.5 67.5-37.28 0-67.5-30.22-67.5-67.5 0-37.28 30.22-67.5 67.5-67.5z"/>
		</clipPath>
	</defs>
	<style>
		.s0 { fill: #232323 } 
		.s1 { fill: #e9e7e7 } 
	</style>
	<g clip-path="url(#cp1)">
		<path id="Ellipse" class="s0" d="m68 0.8c37.3 0 67.5 30.2 67.5 67.5 0 37.2-30.2 67.5-67.5 67.5-37.3 0-67.5-30.3-67.5-67.5 0-37.3 30.2-67.5 67.5-67.5z"/>
		<path id="Person Icon" class="s1" d="m68 34.5c11.8 0 21.4 9.5 21.4 21.3 0 11.8-9.6 21.4-21.4 21.4-11.8 0-21.4-9.6-21.4-21.4 0-11.8 9.6-21.3 21.4-21.3zm0 48.7c27.6 0 50 22.4 50 50 0 27.7-22.4 50.1-50 50.1-27.6 0-50-22.4-50-50.1 0-27.6 22.4-50 50-50z"/>
	</g>
</svg>