<?xml version="1.0" standalone="no"?>
<!DOCTYPE svg PUBLIC "-//W3C//DTD SVG 1.1//EN" "http://www.w3.org/Graphics/SVG/1.1/DTD/svg11.dtd" >
<svg xmlns="http://www.w3.org/2000/svg">
<metadata>Generated by IcoMoon</metadata>
<defs>
<font id="tp-icon-font" horiz-adv-x="1024">
<font-face units-per-em="1024" ascent="960" descent="-64" />
<missing-glyph horiz-adv-x="1024" />
<glyph unicode="&#x20;" horiz-adv-x="512" d="" />
<glyph unicode="&#xe900;" glyph-name="menu" d="M124.121 640h775.758c21.421 0 38.788 23.879 38.788 53.333s-17.367 53.333-38.788 53.333h-775.758c-21.421 0-38.788-23.879-38.788-53.333s17.367-53.333 38.788-53.333zM899.879 480h-775.758c-21.421 0-38.788-23.879-38.788-53.333s17.367-53.333 38.788-53.333h775.758c21.421 0 38.788 23.879 38.788 53.333s-17.367 53.333-38.788 53.333zM515.879 213.333h-391.758c-21.421 0-38.788-23.879-38.788-53.333s17.367-53.333 38.788-53.333h391.758c21.421 0 38.788 23.879 38.788 53.333s-17.367 53.333-38.788 53.333z" />
<glyph unicode="&#xe901;" glyph-name="card" d="M813.333 149.333h-624c-57.438 0-104 46.562-104 104v208c0 38.292 31.042 69.333 69.333 69.333h693.333v69.333c0 19.146-15.521 34.667-34.667 34.667h-624c-19.146 0-34.667-15.521-34.667-34.667s-15.521-34.667-34.667-34.667c-19.146 0-34.667 15.521-34.667 34.667 0 57.438 46.562 104 104 104h624c57.438 0 104-46.562 104-104v-69.333c0-38.292-31.042-69.333-69.333-69.333h-693.333v-208c0-19.146 15.521-34.667 34.667-34.667h624c19.146 0 34.667 15.521 34.667 34.667v104c0 19.146 15.521 34.667 34.667 34.667s34.667-15.521 34.667-34.667v-104c0-57.438-46.562-104-104-104zM778.667 357.333c0 19.146-15.521 34.667-34.667 34.667h-138.667c-19.146 0-34.667-15.521-34.667-34.667s15.521-34.667 34.667-34.667h138.667c19.146 0 34.667 15.521 34.667 34.667z" />
<glyph unicode="&#xe902;" glyph-name="account" d="M512 448c129.652 0 234.755 105.064 234.755 234.667s-105.104 234.667-234.755 234.667c-129.652 0-234.755-105.064-234.755-234.667s105.104-234.667 234.755-234.667zM512 800c64.826 0 117.378-52.532 117.378-117.333s-52.552-117.333-117.378-117.333c-64.826 0-117.378 52.532-117.378 117.333s52.552 117.333 117.378 117.333zM975.055 63.733l-110.922 228.213c-30.325 60.749-92.901 98.646-160.807 97.387h-382.651c-66.853 0.131-128.012-37.596-157.873-97.387l-113.856-228.213c-9.154-18.158-8.248-39.76 2.392-57.090s29.5-27.916 49.841-27.977h821.644c20.341 0.062 39.2 10.648 49.841 27.977s11.546 38.931 2.392 57.090zM196.254 96l71.6 143.733c10.040 19.918 30.509 32.422 52.82 32.268h382.651c22.311 0.154 42.78-12.351 52.82-32.268l71.6-143.733h-631.492z" />
<glyph unicode="&#xe903;" glyph-name="added-basket" d="M357.311 267.486c-59.623-0.017-110.786 42.474-121.717 101.087l-57.351 310.687c-3.63 19.85-21.084 34.162-41.26 33.833h-95.723c-22.787 0-41.26 18.473-41.26 41.26s18.473 41.26 41.26 41.26h96.548c59.623 0.017 110.786-42.474 121.717-101.087l57.351-310.687c3.63-19.85 21.084-34.162 41.26-33.833h440.243c20.176-0.329 37.63 13.983 41.26 33.833l51.987 280.567c2.227 12.16-1.116 24.677-9.108 34.108s-19.792 14.781-32.152 14.579h1.682c-22.787 0-41.26 18.473-41.26 41.26s18.473 41.26 41.26 41.26h-2.094c36.808 0.010 71.711-16.361 95.235-44.67s33.23-65.619 26.482-101.803l-51.987-280.567c-10.931-58.613-62.094-101.104-121.717-101.087h-440.655zM536.378 102.446c0-68.362-55.418-123.78-123.78-123.78s-123.78 55.418-123.78 123.78c0 22.787 18.473 41.26 41.26 41.26s41.26-18.473 41.26-41.26c0-22.787 18.473-41.26 41.26-41.26s41.26 18.473 41.26 41.26c0 22.787-18.473 41.26-41.26 41.26s-41.26 18.473-41.26 41.26c0 22.787 18.473 41.26 41.26 41.26 68.362 0 123.78-55.418 123.78-123.78zM783.938 19.927c0-22.787-18.473-41.26-41.26-41.26-68.362 0-123.78 55.418-123.78 123.78s55.418 123.78 123.78 123.78c68.362 0 123.78-55.418 123.78-123.78 0-22.787-18.473-41.26-41.26-41.26s-41.26 18.473-41.26 41.26c0 22.787-18.473 41.26-41.26 41.26s-41.26-18.473-41.26-41.26c0-22.787 18.473-41.26 41.26-41.26s41.26-18.473 41.26-41.26zM530.868 601.436l-112.989 112.968c-16.189 16.168-16.189 42.493 0 58.661 16.168 16.168 42.451 16.168 58.619 0l42.244-42.285v145.097c0 22.801 18.572 41.456 41.456 41.456 22.905 0 41.456-18.655 41.456-41.456v-145.097l42.265 42.285c16.189 16.168 42.451 16.168 58.619 0 16.189-16.168 16.189-42.493 0-58.661l-112.989-112.968c-1.948-2.073-4.083-3.731-6.343-5.182-1.036-0.829-2.156-1.244-3.213-1.866-1.306-0.622-2.55-1.451-3.938-2.073-1.368-0.415-2.778-0.829-4.187-1.244-1.182-0.415-2.322-0.829-3.545-1.036-2.674-0.622-5.41-0.829-8.125-0.829s-5.431 0.207-8.105 0.829c-1.244 0.207-2.363 0.622-3.545 1.036-1.41 0.415-2.84 0.829-4.208 1.244-1.368 0.622-2.612 1.451-3.918 2.073-1.078 0.622-2.176 1.036-3.213 1.866-2.28 1.451-4.415 3.109-6.343 5.182z" />
<glyph unicode="&#xe904;" glyph-name="alert" d="M597.967 108.132h-186.251c13.823-37.888 50.319-64.76 93.098-64.76 43.107 0 79.658 26.871 93.153 64.76zM447.556 787.814v-40.414l-19.723-8.438c-54.963-23.271-90.203-67.931-112.221-109.366-10.872-20.422-18.084-39.501-22.728-53.42-2.95-10.050-4.917-17.144-5.573-20.1l-20.106-199.062-82.554-144.675c-2.022-3.225-2.295-4.837-2.295-5.482-2.022-12.629 0.656-22.034 3.934-26.871 2.677-3.869 6.939-7.094 15.79-7.094h622.568c8.906 0 12.839 3.225 15.516 6.772 3.223 4.568 5.901 13.274 4.589 25.259 0 0.645-0.656 2.902-3.333 7.094l-102.332 144.997v200.728c-0.328 0.591-0.328 1.29-0.656 2.257-0.983 3.869-2.622 9.405-4.589 16.176-4.644 13.919-11.801 32.998-22.728 53.42-22.018 41.435-57.258 86.095-112.166 109.366l-19.778 8.438v40.414c0 35.631-29.612 64.76-65.835 64.76-36.168 0-65.781-29.128-65.781-64.76zM343.585 108.132h-141.505c-30.596 0-55.291 13.597-70.425 35.9-14.478 21.39-18.084 47.616-14.478 72.23 1.639 11.286 5.955 20.691 9.889 27.785l75.998 133.066 19.068 189.012c1.967 10.050 4.972 20.1 8.25 29.773 5.245 16.499 13.823 39.178 26.99 63.47 23.329 44.338 62.175 96.79 124.404 129.788 0.656 70.886 59.225 128.176 131.562 128.176 72.392 0 131.015-57.29 131.616-128.176 62.229-32.998 101.075-85.451 124.459-129.788 13.112-24.292 21.69-46.971 26.935-63.47 2.677-8.438 4.644-15.209 5.901-20.046 1.038-3.923 1.694-7.47 2.677-11.34v-187.4l90.476-128.176c6.283-9.082 13.167-21.712 14.806-36.921 2.622-23.915-1.639-49.174-16.445-69.543-15.134-21.39-39.501-34.341-69.113-34.341h-158.606c-15.134-73.788-81.57-129.466-161.228-129.466-79.603 0-145.767 55.677-161.228 129.466zM745.012 861.318c4.972 17.466 23.056 27.194 40.485 22.357 132.272-37.244 224.714-183.853 187.563-330.194-4.262-17.466-22.346-27.785-39.829-23.593-17.756 4.192-28.301 22.034-23.985 39.178 28.574 112.644-43.435 224.966-141.505 252.429-17.756 4.891-27.645 22.679-22.728 39.823zM256.388 821.51c-98.070-27.516-170.134-139.838-141.505-252.482 4.262-17.144-6.556-34.933-23.985-39.125-17.756-4.192-35.567 6.127-39.829 23.593-37.48 146.287 54.963 292.95 187.235 330.14 17.429 4.891 35.513-4.837 40.758-22.303 4.972-17.144-5.245-34.986-22.674-39.823z" />
<glyph unicode="&#xe905;" glyph-name="arrow-down" d="M762.351 576c-8.991 0-17.982-3.436-24.796-10.308l-210.913-210.798-210.798 210.798c-13.744 13.687-35.849 13.687-49.536 0-13.744-13.687-13.744-35.906 0-49.593l224.256-224.256c19.413-19.471 53.143-19.242 72.27 0.057l224.256 224.198c13.687 13.687 13.687 35.906 0 49.593-6.815 6.872-15.806 10.308-24.739 10.308v0z" />
<glyph unicode="&#xe906;" glyph-name="arrow-left" d="M676.011 190.993c0 8.991-3.436 17.982-10.308 24.796l-210.798 210.913 210.798 210.798c13.687 13.744 13.687 35.849 0 49.536-13.687 13.744-35.906 13.744-49.593 0l-224.256-224.256c-19.471-19.413-19.242-53.143 0.057-72.27l224.198-224.256c13.687-13.687 35.906-13.687 49.593 0 6.872 6.815 10.308 15.806 10.308 24.739v0z" />
<glyph unicode="&#xe907;" glyph-name="arrow-right" d="M377.344 190.993c0 8.991 3.436 17.982 10.308 24.796l210.798 210.913-210.798 210.798c-13.687 13.744-13.687 35.849 0 49.536 13.687 13.744 35.906 13.744 49.593 0l224.256-224.256c19.471-19.413 19.242-53.143-0.057-72.27l-224.198-224.256c-13.687-13.687-35.906-13.687-49.593 0-6.872 6.815-10.308 15.806-10.308 24.739v0z" />
<glyph unicode="&#xe908;" glyph-name="arrow-up" d="M762.351 277.333c-8.991 0-17.982 3.436-24.796 10.308l-210.913 210.798-210.798-210.798c-13.744-13.687-35.849-13.687-49.536 0-13.744 13.687-13.744 35.906 0 49.593l224.256 224.256c19.413 19.471 53.143 19.242 72.27-0.057l224.256-224.198c13.687-13.687 13.687-35.906 0-49.593-6.815-6.872-15.806-10.308-24.739-10.308v0z" />
<glyph unicode="&#xe909;" glyph-name="basket-error" d="M357.311 267.486c-59.623-0.017-110.786 42.474-121.717 101.087l-57.351 310.687c-3.63 19.85-21.084 34.162-41.26 33.833h-95.723c-22.787 0-41.26 18.473-41.26 41.26s18.473 41.26 41.26 41.26h96.548c59.623 0.017 110.786-42.474 121.717-101.087l57.351-310.687c3.63-19.85 21.084-34.162 41.26-33.833h440.243c20.176-0.329 37.63 13.983 41.26 33.833l51.987 280.567c2.227 12.16-1.116 24.677-9.108 34.108s-19.792 14.781-32.152 14.579h1.682c-22.787 0-41.26 18.473-41.26 41.26s18.473 41.26 41.26 41.26h-2.094c36.808 0.010 71.711-16.361 95.235-44.67s33.23-65.619 26.482-101.803l-51.987-280.567c-10.931-58.613-62.094-101.104-121.717-101.087h-440.655zM536.378 102.446c0-68.362-55.418-123.78-123.78-123.78s-123.78 55.418-123.78 123.78c0 22.787 18.473 41.26 41.26 41.26s41.26-18.473 41.26-41.26c0-22.787 18.473-41.26 41.26-41.26s41.26 18.473 41.26 41.26c0 22.787-18.473 41.26-41.26 41.26s-41.26 18.473-41.26 41.26c0 22.787 18.473 41.26 41.26 41.26 68.362 0 123.78-55.418 123.78-123.78zM783.938 19.927c0-22.787-18.473-41.26-41.26-41.26-68.362 0-123.78 55.418-123.78 123.78s55.418 123.78 123.78 123.78c68.362 0 123.78-55.418 123.78-123.78 0-22.787-18.473-41.26-41.26-41.26s-41.26 18.473-41.26 41.26c0 22.787-18.473 41.26-41.26 41.26s-41.26-18.473-41.26-41.26c0-22.787 18.473-41.26 41.26-41.26s41.26-18.473 41.26-41.26zM455.795 539.307c-6.686 0-15.044 2.443-25.073 7.329s-18.901 11.186-26.616 18.901c-7.715 7.715-11.572 15.43-11.572 23.144 0 5.658 2.057 11.315 6.172 16.973l91.035 127.295-84.863 118.037c-1.029 1.543-2.314 3.857-3.857 6.943s-2.314 6.172-2.314 9.258c0 7.715 3.729 15.43 11.187 23.144s16.33 14.144 26.616 19.287c10.286 5.143 19.801 7.715 28.545 7.715 2.572 0 6.172-0.643 10.801-1.929s8.486-4.243 11.572-8.872l70.205-112.637 70.976 111.865c2.572 4.629 6.172 7.715 10.801 9.258s9.001 2.314 13.115 2.314c7.715 0 16.715-2.572 27.002-7.715s19.158-11.444 26.616-18.901c7.458-7.458 11.187-15.301 11.187-23.53 0-4.629-2.057-10.029-6.172-16.201l-85.635-118.808 91.806-126.523c1.543-1.543 2.957-3.857 4.243-6.943s1.929-6.429 1.929-10.029c0-7.201-3.6-14.53-10.801-21.987s-15.687-13.887-25.459-19.287c-9.772-5.4-19.287-8.101-28.545-8.101-4.115 0-8.358 0.771-12.729 2.314s-7.843 4.372-10.415 8.486l-77.92 117.265-77.148-117.265c-2.572-3.6-6.3-6.3-11.187-8.101s-9.386-2.7-13.501-2.7z" />
<glyph unicode="&#xe90a;" glyph-name="cart" d="M355.1 312.245c-62.612-0.018-116.339 44.603-127.821 106.173l-55.287 299.505c-2.56 14.003-14.873 24.099-29.28 23.865h-92.272c-27.857 0-50.439 22.582-50.439 50.439s22.582 50.439 50.439 50.439h93.065c62.612 0.018 116.339-44.603 127.821-106.173l55.287-299.505c2.56-14.003 14.873-24.099 29.28-23.865l424.547-0.001c14.233-0.232 26.546 9.864 29.11 23.892l50.109 270.431c1.571 8.578-0.787 17.408-6.425 24.061s-13.962 10.427-22.855 10.283h-461.759c-27.857 0-50.439 22.582-50.439 50.439s22.582 50.439 50.439 50.439h461.358c38.653 0.011 75.305-17.181 100.009-46.909s34.895-68.908 27.811-106.894l-50.116-270.465c-11.479-61.551-65.206-106.172-127.818-106.154h-424.765zM538.376 163.821c0-71.788-58.196-129.984-129.984-129.984s-129.984 58.196-129.984 129.984c0 27.857 22.582 50.439 50.439 50.439s50.439-22.582 50.439-50.439c0-16.075 13.031-29.106 29.106-29.106s29.106 13.031 29.106 29.106c0 16.075-13.031 29.106-29.106 29.106-27.857 0-50.439 22.582-50.439 50.439s22.582 50.439 50.439 50.439c71.788 0 129.984-58.196 129.984-129.984zM777.012 84.276c0-27.857-22.582-50.439-50.439-50.439-71.788 0-129.984 58.196-129.984 129.984s58.196 129.984 129.984 129.984c71.788 0 129.984-58.196 129.984-129.984 0-27.857-22.582-50.439-50.439-50.439s-50.439 22.582-50.439 50.439c0 16.075-13.031 29.106-29.106 29.106s-29.106-13.031-29.106-29.106c0-16.075 13.031-29.106 29.106-29.106 27.857 0 50.439-22.582 50.439-50.439z" />
<glyph unicode="&#xe90b;" glyph-name="check" d="M251.712 434.345l150.633-150.633 406.379 406.383c18.542 18.541 48.601 18.541 67.14-0.001s18.54-48.601 0-67.14l-439.949-439.949c-18.533-18.533-48.609-18.537-67.14 0l-184.204 184.201c-18.541 18.541-18.541 48.6 0.001 67.14 18.543 18.539 48.601 18.54 67.139-0.001z" />
<glyph unicode="&#xe90c;" glyph-name="check2" d="M487.845 176.577c-36.754-36.325-96.391-36.325-133.127 0l-206.263 203.856c-36.754 36.308-36.754 95.249 0 131.556 36.736 36.325 96.373 36.325 133.127 0l122.892-121.441c9.277-9.151 24.337-9.151 33.632 0l332.756 328.873c36.736 36.325 96.373 36.325 133.127 0 17.65-17.444 27.566-41.111 27.566-65.778s-9.916-48.334-27.566-65.778l-416.145-411.289z" />
<glyph unicode="&#xe90d;" glyph-name="checklist" d="M514.101 556.709c11.44-11.44 11.44-30.037 0-41.477l-117.333-117.333c-5.749-5.691-13.259-8.565-20.768-8.565s-15.019 2.875-20.709 8.624l-58.667 58.667c-11.44 11.44-11.44 30.037 0 41.477s30.037 11.44 41.477 0l37.899-37.957 96.565 96.624c11.499 11.44 30.096 11.381 41.536-0.059zM514.101 322.043c11.44-11.44 11.44-30.037 0-41.477l-117.333-117.333c-5.749-5.691-13.259-8.565-20.768-8.565s-15.019 2.875-20.709 8.565l-58.667 58.667c-11.44 11.44-11.44 30.037 0 41.477s30.037 11.44 41.477 0l37.899-37.899 96.565 96.624c11.499 11.44 30.096 11.381 41.536-0.059zM728 506.667c16.192 0 29.333-13.141 29.333-29.333s-13.141-29.333-29.333-29.333h-117.333c-16.192 0-29.333 13.141-29.333 29.333s13.141 29.333 29.333 29.333h117.333zM728 272c16.192 0 29.333-13.141 29.333-29.333s-13.141-29.333-29.333-29.333h-117.333c-16.192 0-29.333 13.141-29.333 29.333s13.141 29.333 29.333 29.333h117.333zM816 800c32.325 0 58.667-26.341 58.667-58.667v-704c0-32.325-26.341-58.667-58.667-58.667h-586.667c-32.325 0-58.667 26.341-58.667 58.667v704c0 32.325 26.341 58.667 58.667 58.667h117.333v29.333c0 16.192 13.141 29.333 29.333 29.333h63.653c12.144 34.144 44.763 58.667 83.013 58.667s70.869-24.523 83.013-58.667h63.653c16.192 0 29.333-13.141 29.333-29.333v-29.333h117.333zM405.333 800v-58.667h234.667v58.667h-58.667c-16.192 0-29.333 13.141-29.333 29.333s-13.141 29.333-29.333 29.333c-16.192 0-29.333-13.141-29.333-29.333s-13.141-29.333-29.333-29.333h-58.667zM816 37.333v704h-117.333v-29.333c0-16.192-13.141-29.333-29.333-29.333h-293.333c-16.192 0-29.333 13.141-29.333 29.333v29.333h-117.333v-704h586.667z" />
<glyph unicode="&#xe90e;" glyph-name="close" d="M457.893 466.76c-10.396-0.060-20.387 4.021-27.768 11.342l-82.913 82.913c-13.289 15.517-12.395 38.648 2.051 53.094s37.577 15.34 53.094 2.051l82.913-82.913c11.282-11.189 14.673-28.091 8.58-42.766s-20.459-24.204-36.348-24.112l0.391 0.391zM775.467 59.624c17.928 12.096 22.656 36.435 10.56 54.363s-36.435 22.656-54.363 10.56c-167.692-114.371-394.722-83.346-525.58 71.824s-123.119 384.18 17.915 530.162c141.034 145.982 369.641 161.611 529.229 36.18s198.422-351.256 89.899-522.791c-7.475-11.807-8.084-26.705-1.597-39.082s19.085-20.353 33.048-20.924c13.963-0.57 27.169 6.352 34.645 18.158 128.058 203.531 81.564 470.926-107.68 619.285s-460.007 129.68-627.086-43.261c-167.079-172.941-176.413-444.187-21.619-628.205s423.633-221.267 622.628-86.268v0zM402.357 282.943l82.913 82.913c13.289 15.517 12.395 38.648-2.051 53.094s-37.577 15.34-53.094 2.051l-82.913-82.913c-11.161-9.558-16.023-24.566-12.586-38.853s14.592-25.442 28.879-28.879c14.287-3.437 29.295 1.425 38.853 12.586v0zM678.865 282.943c15.164 15.254 15.164 39.891 0 55.145l-82.913 82.913c-9.558 11.161-24.566 16.023-38.853 12.586s-25.442-14.592-28.879-28.879c-3.437-14.287 1.425-29.295 12.586-38.853l82.913-82.913c15.254-15.164 39.891-15.164 55.145 0v0zM595.952 476.538l82.913 82.913c13.289 15.517 12.395 38.648-2.051 53.094s-37.577 15.34-53.094 2.051l-82.913-82.913c-11.161-9.558-16.023-24.566-12.586-38.853s14.592-25.442 28.879-28.879c14.287-3.437 29.295 1.425 38.853 12.586v0z" />
<glyph unicode="&#xe90f;" glyph-name="delivery" d="M356.893 280.523c-16.213-0.053-30.744 9.995-36.418 25.183l-180.542 484.673-62.376 6.586c-21.397 2.247-36.922 21.414-34.675 42.811s21.414 36.922 42.811 34.675l62.376-6.586c29.171-3.14 54.066-22.487 64.313-49.978l180.542-485.835c4.452-11.916 2.771-25.259-4.498-35.699s-19.2-16.646-31.921-16.604l0.387 0.775zM434.379 21.721c60.838 5.81 107.207 57.052 106.93 118.166l404.088 150.322c13.725 4.26 23.965 15.767 26.602 29.894s-2.764 28.553-14.029 37.477c-11.265 8.923-26.544 10.878-39.693 5.078l-404.088-150.322c-31.391-10.971-52.281-40.748-51.915-73.999 0.050-20.381-15.7-37.316-36.031-38.743-13.836-0.969-27.135 5.533-34.869 17.047-6.544 9.83-8.248 22.109-4.627 33.349s12.171 20.216 23.223 24.378c18.789 8.288 27.847 29.797 20.648 49.030s-28.155 29.506-47.768 23.42c-52.883-19.189-84.432-73.496-74.905-128.94s57.393-96.106 113.648-96.543l12.785 0.387zM600.973 327.402l150.71 56.177c18.789 8.288 27.847 29.797 20.648 49.030s-28.155 29.506-47.768 23.42l-150.71-56.177c-9.657-3.629-20.362-3.257-29.744 1.034s-16.664 12.146-20.235 21.825l-67.413 181.704c-3.629 9.657-3.257 20.362 1.034 29.744s12.146 16.664 21.825 20.235l217.735 80.973c9.657 3.629 20.362 3.257 29.744-1.034s16.664-12.146 20.235-21.825l94.533-254.153c7.489-20.113 29.865-30.347 49.978-22.858s30.347 29.865 22.858 49.978l-94.533 254.153c-10.714 28.942-32.5 52.435-60.553 65.299s-60.071 14.042-88.994 3.276l-217.735-80.973c-28.942-10.714-52.435-32.5-65.299-60.553s-14.042-60.071-3.276-88.994l67.413-181.704c10.714-28.942 32.5-52.435 60.553-65.299s60.071-14.042 88.994-3.276v0z" />
<glyph unicode="&#xe910;" glyph-name="discount" d="M429.385-20.106h-8.594c-28.851 9.040-52.783 29.427-66.295 56.473-4.757 7.965-10.384 15.376-16.778 22.098-9.048-0.204-18.072-1.025-27.009-2.455-28.817-10.566-61.041-5.576-85.313 13.21s-37.183 48.73-34.18 79.275c-0.693 9.45-2.479 18.788-5.32 27.827-8.078 3.861-16.42 7.143-24.963 9.821-30.561 3.066-57.395 21.638-71.031 49.159s-12.156 60.122 3.919 86.294c3.538 8.955 6.010 18.295 7.366 27.827-5.451 6.65-11.329 12.938-17.597 18.824-23.395 18.952-38.151 46.545-40.923 76.525 3.060 31.401 17.638 60.556 40.923 81.845 8.006 7.888 14.891 16.838 20.461 26.6 0.326 12.028-1.192 24.034-4.501 35.603-13.313 29.606-11.596 63.804 4.614 91.928s44.941 46.752 77.231 50.073c11.366 2.933 22.254 7.481 32.329 13.504 6.065 10.054 10.616 20.948 13.504 32.329 3.146 32.378 21.743 61.24 49.927 77.485s62.481 17.869 92.074 4.36c11.566-3.322 23.574-4.84 35.603-4.501 9.779 5.544 18.733 12.432 26.6 20.461 19.291 26.911 50.371 42.872 83.482 42.872s64.191-15.961 83.482-42.872c7.867-8.030 16.821-14.917 26.6-20.461 12.031-0.392 24.048 1.127 35.603 4.501 29.606 13.313 63.804 11.596 91.928-4.614s46.752-44.941 50.073-77.231c0.222-24.994 20.43-45.202 45.424-45.424 32.291-3.321 61.022-21.949 77.231-50.073s17.926-62.322 4.614-91.928c-3.249-11.441-4.767-23.303-4.501-35.193 5.571-9.761 12.455-18.711 20.461-26.6 23.284-21.289 37.862-50.444 40.923-81.845-2.772-29.981-17.527-57.573-40.923-76.525-6.743-6.131-12.782-12.994-18.006-20.461 1.947-8.909 4.546-17.662 7.775-26.19 16.074-26.172 17.555-58.773 3.919-86.294s-40.471-46.093-71.031-49.159c-8.963-2.576-17.61-6.144-25.781-10.64-2.117-8.751-3.621-17.639-4.501-26.6 3.002-30.545-9.908-60.489-34.18-79.275s-56.497-23.775-85.313-13.21c-9.376 1.173-18.861 1.173-28.237 0-5.686-6.712-10.883-13.823-15.551-21.28-13.512-27.047-37.444-47.433-66.295-56.473-22.601-4.52-44.587 10.137-49.107 32.738s10.137 44.587 32.738 49.107l14.732 21.689c11.531 21.279 28.837 38.869 49.926 50.744 23.074 8.353 48.030 10.054 72.024 4.911 8.043-0.415 16.102-0.415 24.144 0 1.845 7.959 3.211 16.022 4.092 24.144-2.117 51.086 34.248 95.707 84.71 103.943 7.813 2.538 15.465 5.545 22.917 9.003-1.886 7.764-4.209 15.415-6.957 22.917-9.811 22.511-13.073 47.333-9.412 71.614 7.728 23.15 21.93 43.601 40.923 58.928 7.102 6.468 13.42 13.748 18.824 21.689 0 2.865-14.323 17.187-22.098 25.781-18.357 16.565-32.403 37.353-40.923 60.565-4.782 24.465-3.66 49.717 3.274 73.661 3.158 11.18 4.674 22.759 4.501 34.375-10.114 5.449-20.825 9.706-31.92 12.686-50.357 8.396-89.818 47.857-98.214 98.214-2.827 11.531-7.38 22.568-13.504 32.738-11.329-0.431-22.579-2.077-33.556-4.911-23.941-6.949-49.197-8.072-73.661-3.274-23.212 8.52-44 22.565-60.565 40.923-8.454 8.747-18.265 16.071-29.055 21.689-10.416-5.819-19.928-13.126-28.237-21.689-16.565-18.357-37.353-32.403-60.565-40.923-24.462-4.814-49.722-3.691-73.661 3.274-11.165 3.229-22.755 4.747-34.375 4.501-5.426-10.124-9.682-20.833-12.686-31.92-8.396-50.357-47.857-89.818-98.214-98.214-11.534-2.815-22.574-7.368-32.738-13.504 0.379-11.334 2.026-22.589 4.911-33.556 6.933-23.944 8.056-49.196 3.274-73.661-8.52-23.212-22.565-44-40.923-60.565-8.726-8.473-16.047-18.28-21.689-29.055l18.415-18.824c18.993-15.328 33.194-35.778 40.923-58.928 3.661-24.282 0.398-49.103-9.412-71.614-7.448-5.074-9.998-14.873-5.967-22.933s13.399-11.9 21.927-8.986c50.364-8.405 86.642-52.919 84.71-103.943 0.881-8.123 2.247-16.185 4.092-24.144h24.144c49.112 15.227 101.853-8.682 122.768-55.655 4.97-8.162 10.875-15.715 17.597-22.507 21.461-5.082 35.035-26.257 30.692-47.879-3.716-18.326-19.382-31.802-38.058-32.738zM458.031 330.191l173.512 173.512c13.905 16.236 12.97 40.439-2.146 55.555s-39.319 16.050-55.555 2.146l-173.512-173.512c-11.678-10.001-16.765-25.704-13.169-40.653s15.268-26.621 30.217-30.217c14.949-3.596 30.652 1.491 40.653 13.169v0zM433.886 568.77c-22.601 0-40.923-18.322-40.923-40.923s18.322-40.923 40.923-40.923c22.601 0 40.923 18.322 40.923 40.923s-18.322 40.923-40.923 40.923zM597.576 405.080c-22.601 0-40.923-18.322-40.923-40.923s18.322-40.923 40.923-40.923c22.601 0 40.923 18.322 40.923 40.923s-18.322 40.923-40.923 40.923z" />
<glyph unicode="&#xe911;" glyph-name="edit" d="M450.088 89.037c1.601 1.609 3.778 2.513 6.048 2.513h516.664c4.713 0 8.533-3.821 8.533-8.533v-52.781c0-4.713-3.821-8.533-8.533-8.533h-569.202c-2.256 0-4.421 0.894-6.020 2.485-3.34 3.325-3.353 8.728-0.028 12.068l52.538 52.781zM764.195 806.123l57.692-57.692-49.331-49.395-57.627 57.627-53.833-54.026 57.499-57.499-49.266-49.395-57.37 57.434-377.279-378.758 100.012-100.012 550.354 552.605c13.378 13.378 20.71 31.129 20.71 50.038-0.064 18.909-7.396 36.66-20.774 49.974-27.527 27.527-72.356 27.527-100.012-0.129l-20.774-20.774zM278.544 131.832l-86.57 86.698-34.666-97.696 22.575-22.575 98.661 33.573zM934.247 876.42c26.627-26.498 41.291-61.744 41.291-99.369 0.064-37.561-14.536-72.87-41.163-99.369l-566.626-569.005c-18.523-18.394-41.484-32.544-66.31-40.841l-250.172-87.108c-1.826-0.636-3.815-0.633-5.639 0.010-4.445 1.565-6.781 6.437-5.216 10.882l88.016 250.063c8.040 24.376 22.060 47.144 40.519 65.603l566.69 569.005c54.669 54.669 143.875 54.733 198.608 0.129z" />
<glyph unicode="&#xe912;" glyph-name="invoice" d="M831.307 816.291v-734.626c0.082-12.435-4.443-24.46-12.703-33.747-18.443-20.744-50.212-22.607-70.934-4.18l-48.281 42.709-68.227-61.013c-19.179-17.175-48.21-17.175-67.384-0.005l-68.124 60.92-68.106-60.922c-19.176-17.179-48.207-17.179-67.377-0.005l-68.209 61.014-48.213-42.69c-9.288-8.256-21.303-12.784-33.728-12.711-27.788 0.164-50.182 22.824-50.021 50.55v734.631c-0.083 12.427 4.44 24.446 12.696 33.734 18.44 20.746 50.208 22.616 70.935 4.193l48.281-42.709 68.227 61.014c19.179 17.178 48.211 17.178 67.384 0.006l68.13-60.921 68.106 60.915c19.176 17.179 48.207 17.179 67.377 0.005l68.209-61.014 48.161 42.644c14.808 13.337 36.127 16.589 54.236 8.279 18.189-8.12 29.812-26.281 29.566-46.072zM665.62 138.395c19.089 17.094 47.959 17.171 67.139 0.18l37.515-33.246-0.179 205.917v481.311l-37.432-33.234c-19.129-17.006-47.979-16.927-66.994 0.164l-68.204 60.984-68.117-60.916c-19.178-17.178-48.21-17.178-67.382-0.005l-68.113 60.921-68.167-60.978c-19.089-17.094-47.959-17.171-67.141-0.178l-37.527 33.256 0.192-604.682v-82.548l37.432 33.225c19.129 17.006 47.979 16.927 66.994-0.164l68.204-60.984 68.117 60.916c19.178 17.178 48.21 17.178 67.382 0.005l68.113-60.921 68.167 60.978zM684.648 479.547c16.901 0 30.604-13.702 30.604-30.604s-13.702-30.604-30.604-30.604h-377.991c-16.903 0-30.604 13.702-30.604 30.604s13.702 30.604 30.604 30.604h377.991zM505.209 599.174c16.901 0 30.604-13.702 30.604-30.604s-13.702-30.604-30.604-30.604h-198.552c-16.903 0-30.604 13.702-30.604 30.604s13.702 30.604 30.604 30.604h198.552zM684.648 359.921c16.901 0 30.604-13.702 30.604-30.604s-13.702-30.604-30.604-30.604h-377.991c-16.903 0-30.604 13.702-30.604 30.604s13.702 30.604 30.604 30.604h377.991z" />
<glyph unicode="&#xe913;" glyph-name="larrow-down" d="M477.606 87.766v766.399c0 19.687 15.916 35.646 35.55 35.646s35.55-15.959 35.55-35.646v-718.989l186.638 213.879c8.383 9.615 21.244 14.016 33.74 11.544s22.727-11.44 26.84-23.527c4.113-12.087 1.483-25.456-6.899-35.071l-217.567-249.525c-14.675-16.858-38.267-22.77-59.126-14.818s-34.573 28.088-34.371 50.464l-0.356-0.356zM237.287 302.001l124.425-142.586c12.958-14.864 35.48-16.38 50.303-3.386s16.336 35.576 3.377 50.44l-124.425 142.586c-12.958 14.864-35.48 16.38-50.303 3.386s-16.336-35.576-3.377-50.44v0z" />
<glyph unicode="&#xe914;" glyph-name="larrow-left" d="M138.934 426.438h766.399c19.687 0 35.646 15.916 35.646 35.55s-15.959 35.55-35.646 35.55h-718.989l213.879 186.638c9.615 8.383 14.016 21.244 11.544 33.74s-11.44 22.727-23.527 26.84c-12.087 4.113-25.456 1.483-35.071-6.899l-249.525-217.567c-16.858-14.675-22.77-38.267-14.818-59.126s28.088-34.573 50.464-34.371l-0.356-0.356zM353.169 186.119l-142.586 124.425c-14.864 12.958-16.38 35.48-3.386 50.303s35.576 16.336 50.44 3.377l142.586-124.425c14.864-12.958 16.38-35.48 3.386-50.303s-35.576-16.336-50.44-3.377v0z" />
<glyph unicode="&#xe915;" glyph-name="larrow-right" d="M887.378 426.438h-766.399c-19.687 0-35.646 15.916-35.646 35.55s15.959 35.55 35.646 35.55h718.989l-213.879 186.638c-9.615 8.383-14.016 21.244-11.544 33.74s11.44 22.727 23.527 26.84c12.087 4.113 25.456 1.483 35.071-6.899l249.525-217.567c16.858-14.675 22.77-38.267 14.818-59.126s-28.088-34.573-50.464-34.371l0.356-0.356zM673.143 186.119l142.586 124.425c14.864 12.958 16.38 35.48 3.386 50.303s-35.576 16.336-50.44 3.377l-142.586-124.425c-14.864-12.958-16.38-35.48-3.386-50.303s35.576-16.336 50.44-3.377v0z" />
<glyph unicode="&#xe916;" glyph-name="larrow-up" d="M477.606 836.21v-766.399c0-19.687 15.916-35.646 35.55-35.646s35.55 15.959 35.55 35.646v718.989l186.638-213.879c8.383-9.615 21.244-14.016 33.74-11.544s22.727 11.44 26.84 23.527c4.113 12.087 1.483 25.456-6.899 35.071l-217.567 249.525c-14.675 16.858-38.267 22.77-59.126 14.818s-34.573-28.088-34.371-50.464l-0.356 0.356zM237.287 621.975l124.425 142.586c12.958 14.864 35.48 16.38 50.303 3.386s16.336-35.576 3.377-50.44l-124.425-142.586c-12.958-14.864-35.48-16.38-50.303-3.386s-16.336 35.576-3.377 50.44v0z" />
<glyph unicode="&#xe917;" glyph-name="launch" d="M586.41-20.943c-17.898-0.034-35.066 7.092-47.678 19.791l-47.678 47.678c-12.836 10.993-18.427 28.253-14.475 44.684s16.781 29.26 33.213 33.213c16.431 3.952 33.691-1.639 44.684-14.475l31.936-31.936 15.743 15.743c3.393 3.416 5.6 7.83 6.297 12.594l26.538 185.316c2.819 19.271 11.816 37.107 25.638 50.827l111.999 111.999c76.192 75.675 118.95 178.683 118.746 286.070v86.811h-86.811c-107.387 0.204-210.395-42.554-286.070-118.746l-111.999-111.999c-13.72-13.823-31.556-22.82-50.827-25.638l-185.766-26.538c-4.764-0.697-9.178-2.904-12.594-6.297l-15.743-15.743 31.936-31.936c12.836-10.993 18.427-28.253 14.475-44.684s-16.781-29.26-33.213-33.213c-16.431-3.952-33.691 1.639-44.684 14.475l-47.678 47.678c-26.309 26.342-26.309 69.015 0 95.357l31.936 31.936c17.155 17.189 39.396 28.389 63.421 31.936l185.766 26.538 111.999 111.999c92.624 93.074 218.633 145.226 349.941 144.834h130.891c24.842 0 44.98-20.138 44.98-44.98v-131.79c0.392-131.308-51.76-257.317-144.834-349.941l-111.999-111.999-26.538-185.766c-3.547-24.025-14.746-46.266-31.936-63.421l-31.936-31.936c-12.832-12.205-29.973-18.835-47.678-18.442zM363.762 109.948l63.421 63.421c15.283 17.846 14.255 44.449-2.359 61.063s-43.217 17.642-61.063 2.359l-63.421-63.421c-12.836-10.993-18.427-28.253-14.475-44.684s16.781-29.26 33.213-33.213c16.431-3.952 33.691 1.639 44.684 14.475v0zM173.048 173.369l127.292 127.292c15.283 17.846 14.255 44.449-2.359 61.063s-43.217 17.642-61.063 2.359l-127.292-127.292c-12.836-10.993-18.427-28.253-14.475-44.684s16.781-29.26 33.213-33.213c16.431-3.952 33.691 1.639 44.684 14.475v0zM745.638 491.375c52.618 52.683 52.618 138.030 0 190.713-10.993 12.836-28.253 18.427-44.684 14.475s-29.26-16.781-33.213-33.213c-3.952-16.431 1.639-33.691 14.475-44.684 8.515-8.446 13.305-19.942 13.305-31.936s-4.79-23.49-13.305-31.936c-17.544-17.44-45.877-17.44-63.421 0-8.515 8.446-13.305 19.942-13.305 31.936s4.79 23.49 13.305 31.936c15.283 17.846 14.255 44.449-2.359 61.063s-43.217 17.642-61.063 2.359c-36.101-33.639-50.962-84.302-38.752-132.112s49.543-85.143 97.353-97.353c47.81-12.21 98.473 2.651 132.112 38.752h-0.45z" />
<glyph unicode="&#xe918;" glyph-name="more-info" d="M180.609-21.096c-16.63-0.070-31.485 10.383-37.033 26.060s-0.577 33.148 12.395 43.554l68.832 55.926c25.565 20.716 61.362 23.217 89.56 6.257 152.094-89.143 345.028-65.509 471.108 57.71s154.135 315.561 68.505 469.66c-85.63 154.1-263.775 231.86-434.996 189.875s-293.186-193.334-297.816-369.566c-2.713-77.436 18.301-153.851 60.228-219.011 11.556-18.251 6.128-42.415-12.124-53.97s-42.415-6.128-53.97 12.124c-50.357 78.32-75.6 170.149-72.352 263.204 5.743 211.425 152.198 392.886 357.647 443.131s419.121-43.143 521.792-228.055c102.671-184.912 68.969-415.653-82.301-563.474s-382.727-176.194-565.222-69.286l-69.614-55.144c-6.933-5.745-15.635-8.922-24.639-8.995zM511.471 252.667c21.599 0 39.109 17.51 39.109 39.109s-17.51 39.109-39.109 39.109c-21.599 0-39.109-17.51-39.109-39.109s17.51-39.109 39.109-39.109zM550.58 409.104c-1.341 25.347 10.486 49.593 31.287 64.139 29.108 21.826 46.443 55.919 46.931 92.297 0 64.798-52.529 117.327-117.327 117.327s-117.327-52.529-117.327-117.327c0-21.599 17.51-39.109 39.109-39.109s39.109 17.51 39.109 39.109c0 30.114 8.995 39.109 39.109 39.109s39.109-8.995 39.109-39.109c0-14.079-4.693-19.163-21.901-35.198-36.765-29.33-57.619-74.225-56.317-121.238 0-21.599 17.51-39.109 39.109-39.109s39.109 17.51 39.109 39.109v0z" />
<glyph unicode="&#xe919;" glyph-name="payment-method" d="M828.444 85.333h-625.778c-64.801 0-117.333 52.532-117.333 117.333v469.333c0 64.801 52.532 117.333 117.333 117.333h625.778c64.801 0 117.333-52.532 117.333-117.333v-39.111c0-21.6-17.511-39.111-39.111-39.111s-39.111 17.511-39.111 39.111v39.111c0 21.6-17.511 39.111-39.111 39.111h-625.778c-21.6 0-39.111-17.511-39.111-39.111v-469.333c0-21.6 17.511-39.111 39.111-39.111h625.778c21.6 0 39.111 17.511 39.111 39.111v39.111c0 21.6 17.511 39.111 39.111 39.111s39.111-17.511 39.111-39.111v-39.111c0-64.801-52.532-117.333-117.333-117.333zM1024 398.222v78.222c0 43.201-35.021 78.222-78.222 78.222h-195.556c-43.201 0-78.222-35.021-78.222-78.222v-117.333c0-21.6 17.511-39.111 39.111-39.111s39.111 17.511 39.111 39.111v117.333h195.556v-78.222h-78.222c-21.6 0-39.111-17.511-39.111-39.111s17.511-39.111 39.111-39.111h78.222c43.201 0 78.222 35.021 78.222 78.222z" />
<glyph unicode="&#xe91a;" glyph-name="print" d="M233.877 208.119h-85.175c-58.483 0-106.035 47.564-106.035 106.035v267.694c0 58.47 47.551 106.035 106.035 106.035h85.175v123.417c0 58.47 47.551 106.035 106.035 106.035h344.178c58.483 0 106.035-47.564 106.035-106.035v-123.417h85.175c58.483 0 106.035-47.564 106.035-106.035v-267.694c0-58.47-47.551-106.035-106.035-106.035h-85.175v-123.417c0-58.47-47.551-106.035-106.035-106.035h-344.178c-58.483 0-106.035 47.564-106.035 106.035v123.417zM233.877 267.22v123.417c0 16.315 13.236 29.551 29.551 29.551h497.146c16.315 0 29.551-13.236 29.551-29.551v-123.417h85.175c25.866 0 46.933 21.067 46.933 46.933v267.694c0 25.866-21.067 46.933-46.933 46.933h-726.598c-25.866 0-46.933-21.067-46.933-46.933v-267.694c0-25.866 21.067-46.933 46.933-46.933h85.175zM292.978 687.881h438.044v123.417c0 25.866-21.067 46.933-46.933 46.933h-344.178c-25.866 0-46.933-21.067-46.933-46.933v-123.417zM607.605 93.393h-229.452c-16.315 0-29.551 13.236-29.551 29.551s13.236 29.551 29.551 29.551h229.452c16.315 0 29.551-13.236 29.551-29.551s-13.236-29.551-29.551-29.551zM607.605 169.877h-229.452c-16.315 0-29.551 13.236-29.551 29.551s13.236 29.551 29.551 29.551h229.452c16.315 0 29.551-13.236 29.551-29.551s-13.236-29.551-29.551-29.551zM454.637 246.36h-76.484c-16.315 0-29.551 13.236-29.551 29.551s13.236 29.551 29.551 29.551h76.484c16.315 0 29.551-13.236 29.551-29.551s-13.236-29.551-29.551-29.551zM292.978 361.086v-276.385c0-25.866 21.067-46.933 46.933-46.933h344.178c25.866 0 46.933 21.067 46.933 46.933v276.385h-438.044z" />
<glyph unicode="&#xe91b;" glyph-name="recipes" d="M860.298 663.97c5.474 3.034 13.182 16.513 16.011 26.379 6.972 24.314 21.402 50.481 46.050 64.143s54.489 12.034 78.798 5.063c16.735-4.799 26.411-22.256 21.613-38.99-4.787-16.696-22.178-26.372-38.853-21.652-10.579 2.938-25.679 3.386-30.994 0.439-5.32-2.949-12.947-16.002-16.040-26.472-6.945-24.218-21.385-50.393-46.024-64.050-24.647-13.663-54.489-12.034-78.798-5.063-16.734 4.799-26.41 22.255-21.611 38.99 2.617 9.125 8.997 16.152 16.963 19.88-10.401 2.47-24.018 2.696-29.009-0.071-5.32-2.949-12.947-16.002-16.040-26.472-6.945-24.218-21.385-50.393-46.024-64.050-24.647-13.663-54.489-12.034-78.798-5.063-16.735 4.799-26.411 22.256-21.613 38.99s22.256 26.411 38.936 21.628c10.494-2.918 25.598-3.36 30.911-0.415 5.474 3.034 13.182 16.513 16.011 26.379 6.972 24.314 21.402 50.481 46.050 64.143 24.647 13.663 54.489 12.034 78.798 5.063 16.735-4.799 26.411-22.256 21.613-38.99-2.617-9.126-8.999-16.155-16.972-19.882 10.341-2.47 24.019-2.7 29.020 0.073zM85.333 450.468c0 44.452 36.154 80.606 80.606 80.606h690.443c44.452 0 80.606-36.153 80.606-80.605 0-59.909-41.129-111.536-98.167-125.813v-171.963c0-71.517-58.173-129.69-129.69-129.69h-395.941c-71.517 0-129.69 58.173-129.69 129.69v171.961c-57.039 14.278-98.167 65.905-98.167 125.812zM165.94 468.029c-9.677 0-17.561-7.884-17.561-17.561 0-24.918 13.889-47.266 35.122-58.696v76.257h-17.561zM246.546 468.029v-315.335c0-36.742 29.903-66.645 66.645-66.645h395.941c36.742 0 66.645 29.903 66.645 66.645v315.335h-529.23zM873.943 450.469c0 9.677-7.884 17.561-17.561 17.561h-17.561v-76.257c21.232 11.429 35.122 33.778 35.122 58.696zM738.549 871.788c15.824 7.258 34.534 0.315 41.795-15.509 7.259-15.824 0.315-34.536-15.509-41.795l-535.033-245.418c-15.832-7.261-34.541-0.307-41.795 15.51-7.258 15.824-0.315 34.536 15.509 41.794l172.265 79.018c-19.785 51.29 3.54 109.984 54.162 133.287 50.709 23.345 110.59 2.784 136.614-45.778l171.991 78.891zM422.978 719.736l3.045-6.663 101.943 46.761-3.129 6.779c-12.928 28.080-46.282 40.406-74.368 27.477s-40.412-46.285-27.491-74.354z" />
<glyph unicode="&#xe91c;" glyph-name="reward" d="M771.621-20.903c-10.427-0.044-20.707 2.465-29.952 7.311l-213.946 112.248c-12.458 6.577-27.336 6.577-39.794 0l-48.78-25.804c-20.822-10.377-46.078-2.152-56.888 18.527s-3.221 46.249 17.094 57.596l48.78 25.804c37.373 19.73 82.009 19.73 119.382 0l173.724-92.035-33.376 194.391c-7.093 41.758 6.661 84.354 36.799 113.968l140.777 137.622-194.263 28.385c-41.82 6.081-77.983 32.457-96.704 70.531l-85.578 176.758-85.578-176.758c-18.72-38.075-54.884-64.451-96.704-70.531l-194.263-28.385 140.777-137.622c30.274-29.707 44.039-72.501 36.799-114.398l-40.65-237.398c-2.599-15.365-13.156-28.169-27.694-33.589s-30.85-2.633-42.789 7.311c-11.94 9.945-17.694 25.536-15.095 40.901l40.65 237.398c2.427 14.037-2.22 28.371-12.409 38.276l-171.157 168.157c-17.53 17.128-23.857 42.778-16.317 66.153s27.638 40.414 51.832 43.945l237.052 34.836c13.916 2.101 25.915 10.945 32.092 23.654l106.117 215.035c10.814 22.015 33.124 35.951 57.552 35.951s46.737-13.937 57.552-35.951l106.117-215.035c6.177-12.709 18.176-21.553 32.092-23.654l237.052-34.836c24.194-3.531 44.292-20.57 51.832-43.945s1.213-49.025-16.317-66.153l-171.157-168.157c-10.052-9.812-14.688-23.95-12.409-37.846l40.65-237.398c3.291-18.797-1.867-38.093-14.088-52.701s-30.251-23.026-49.24-22.991l0.428 0.43z" />
<glyph unicode="&#xe91d;" glyph-name="search" d="M850.774-11.505l-170.266 192.762c-110.345-66.070-245.964-75.135-364.342-23.917-121.162 52.422-208.661 161.246-233.838 290.803-33.078 167.226 42.945 337.127 189.675 423.897s332.239 71.527 462.838-38.030c130.599-109.557 177.869-289.588 117.924-449.208-11.041-29.080-43.565-43.703-72.645-32.662s-43.703 43.565-32.674 72.611c32.983 87.746 21.398 186.035-31.083 263.707s-139.349 125.094-233.149 127.235c-87.342 2.684-171.065-34.959-227.035-102.086-91.093-108.909-89.669-267.832 3.362-375.090s250.156-131.134 371.060-56.224c42.515 24.996 96.825 15.98 128.891-21.306l176.221-199.504c14.589-16.606 18.114-40.211 9.013-60.355s-29.145-33.1-51.249-33.128l-7.698-0.010-0.647 1.94c-13.223 1.881-25.443 8.42-34.356 18.564z" />
<glyph unicode="&#xe91e;" glyph-name="send" d="M976.554 828.663c-4.178 3.513-10.125 4.327-15.165 2.087l-910.604-405.506c-4.902-2.184-8.059-6.872-8.119-12.052-0.058-5.18 2.995-9.932 7.85-12.216l179.884-77.809c3.15-1.483 128.306 60.194 375.467 185.030l-228.945-245.823c-3.677-3.948-5.722-9.144-5.722-14.539v-195.53c0-11.782 9.551-21.333 21.333-21.333 5.801 0 11.351 2.362 15.373 6.542l127.091 132.087 187.792-91.096c3.67-1.681 7.919-1.751 11.648-0.196 3.729 1.557 6.569 4.586 7.787 8.303l238.463 727.914c1.667 5.083 0.042 10.626-4.133 14.139z" />
<glyph unicode="&#xe91f;" glyph-name="spice-empty" d="M128.235 87.597c2.92 40.476 31.39 72.769 70.844 80.361 156.33 30.084 290.158 143.514 349.259 296.029 20.486 52.865 31.135 107.521 31.654 162.449 0.303 31.952 12.624 62.347 34.697 85.586 21.978 23.139 51.63 37.097 83.495 39.303 9.045 0.626 18.181 1.052 27.371 1.318 7.269 25.615 15.259 77.542-21.717 118.789-10.148 11.321-9.198 28.724 2.121 38.872 11.319 10.145 28.722 9.2 38.872-2.121 48.035-53.583 45.607-116.708 37.213-156.132 1.653-0.083 3.307-0.149 4.96-0.242 59.066-3.333 107.409-46.306 117.559-104.5 17.083-97.934 6.412-200.537-30.858-296.719-52.659-135.896-152.291-246.651-280.539-311.863-78.41-39.87-162.234-60.059-245.551-60.059-53.504 0-106.815 8.333-158.301 25.129-3.011 0.982-6.003 1.989-8.987 3.024-34.326 11.916-54.774 43.623-52.094 80.778zM783.902 696.836c-27.63 1.56-55.192 1.415-81.915-0.435-37.189-2.575-66.594-33.535-66.942-70.486-0.174-18.474-1.389-36.91-3.591-55.267 6.717-4.193 11.976-8.956 16.419-12.985 8.192-7.429 10.633-9.37 17.902-9.37 7.256 0 9.695 1.943 17.874 9.368 10.378 9.423 26.061 23.664 54.882 23.664 28.823 0 44.508-14.241 54.887-23.664 8.179-7.427 10.62-9.368 17.88-9.368s9.699 1.943 17.88 9.368c6.517 5.917 15.145 13.714 27.782 18.713-0.894 20.642-3.089 41.173-6.629 61.472-5.733 32.849-33.049 57.108-66.429 58.991v0zM198.379 58.831c2.654-0.921 5.322-1.82 8.007-2.696 117.679-38.388 246.179-27.142 361.828 31.662 116.143 59.057 206.404 159.448 254.158 282.68 17.309 44.667 28.254 90.819 32.732 137.096-9.98-7.396-23.686-14.336-43.807-14.336-28.825 0-44.508 14.241-54.887 23.664-8.181 7.427-10.62 9.368-17.88 9.368-7.256 0-9.695-1.943-17.872-9.367-10.378-9.425-26.061-23.666-54.884-23.666-21.357 0-35.495 7.818-45.614 15.698-5.388-21.835-12.207-43.478-20.486-64.841-65.891-170.039-215.404-296.565-390.19-330.198-16.918-3.256-25.417-17.546-26.334-30.262-0.516-7.113 0.782-19.79 15.23-24.804v0z" />
<glyph unicode="&#xe920;" glyph-name="spice-full" d="M128.235 87.597c2.92 40.476 31.39 72.769 70.844 80.361 156.33 30.084 290.158 143.514 349.259 296.029 20.486 52.865 31.135 107.521 31.654 162.449 0.303 31.952 12.624 62.347 34.697 85.586 21.978 23.139 51.63 37.097 83.495 39.303 9.045 0.626 18.181 1.052 27.371 1.318 7.269 25.615 15.259 77.542-21.717 118.789-10.148 11.321-9.198 28.724 2.121 38.872 11.319 10.145 28.722 9.2 38.872-2.121 48.035-53.583 45.607-116.708 37.213-156.132 1.653-0.083 3.307-0.149 4.96-0.242 59.066-3.333 107.409-46.306 117.559-104.5 17.083-97.934 6.412-200.537-30.858-296.719-52.659-135.896-152.291-246.651-280.539-311.863-78.41-39.87-162.234-60.059-245.551-60.059-53.504 0-106.815 8.333-158.301 25.129-3.011 0.982-6.003 1.989-8.987 3.024-34.326 11.916-54.774 43.623-52.094 80.778z" />
<glyph unicode="&#xe921;" glyph-name="timer" d="M510.594 33.692c197.118 0 357.486 160.368 357.486 357.486s-160.368 357.486-357.486 357.486c-197.169 0-357.486-160.368-357.486-357.486s160.317-357.486 357.486-357.486zM483.056 862.308v-59.581c9.162 0.607 18.274 0.962 27.538 0.962 9.213 0 18.375-0.354 27.487-0.962v59.581h-55.025zM821.053 662.76c66.010-75.223 102.001-170.593 102.001-271.582 0-110.151-42.876-213.773-120.782-291.679s-181.477-120.833-291.679-120.833c-110.202 0-213.823 42.927-291.729 120.833s-120.731 181.527-120.731 291.679c0 100.989 35.992 196.359 101.951 271.582l-26.525 26.576-13.010-13.010c-5.366-5.315-12.402-8.049-19.438-8.049-6.986 0-14.073 2.734-19.438 8.049-10.782 10.782-10.782 28.196 0 38.928l64.846 64.795c10.732 10.782 28.095 10.782 38.877 0 10.732-10.732 10.732-28.145 0-38.826l-13.010-13.010 26.627-26.576c54.316 47.685 119.162 79.728 189.070 93.801v66.87h-9.213c-15.136 0-27.437 12.301-27.437 27.538 0 15.186 12.301 27.487 27.437 27.487h183.4c15.136 0 27.487-12.301 27.487-27.487 0-15.237-12.352-27.538-27.487-27.538h-9.162v-66.87c69.857-14.073 134.703-46.116 189.019-93.801l26.627 26.576-12.959 13.010c-10.782 10.681-10.782 28.095 0 38.826 10.732 10.782 28.095 10.782 38.826 0l64.896-64.795c10.732-10.732 10.732-28.145 0-38.928-5.416-5.315-12.453-7.998-19.489-7.998s-14.022 2.683-19.438 7.998l-12.959 13.010-26.576-26.576zM510.594 693.644c15.186 0 27.487-12.301 27.487-27.487s-12.301-27.487-27.487-27.487c-15.237 0-27.538 12.301-27.538 27.487s12.301 27.487 27.538 27.487zM510.594 143.681c15.186 0 27.487-12.301 27.487-27.487 0-15.237-12.301-27.538-27.487-27.538-15.237 0-27.538 12.301-27.538 27.538 0 15.186 12.301 27.487 27.538 27.487zM346.617 636.396c3.898 14.68 18.983 23.387 33.663 19.489 14.68-3.948 23.387-19.034 19.438-33.714-3.898-14.629-18.983-23.387-33.663-19.438s-23.387 19.034-19.438 33.663zM634.327 176.853c13.161 7.543 29.968 3.088 37.561-10.074s3.088-29.968-10.074-37.561c-13.161-7.593-29.968-3.088-37.561 10.074s-3.088 29.968 10.074 37.561zM265.396 555.226c14.68 3.948 29.765-4.758 33.663-19.438 3.948-14.68-4.758-29.765-19.438-33.663-14.68-3.948-29.765 4.758-33.663 19.438-3.948 14.68 4.758 29.765 19.438 33.663zM762.464 277.503c13.161-7.593 17.717-24.399 10.074-37.561-7.593-13.161-24.399-17.667-37.561-10.074s-17.667 24.399-10.074 37.561c7.593 13.161 24.399 17.616 37.561 10.074zM235.59 418.69c15.186 0 27.487-12.301 27.487-27.538 0-15.186-12.301-27.487-27.487-27.487s-27.487 12.301-27.487 27.487c0 15.237 12.301 27.538 27.487 27.538zM785.547 418.69c15.237 0 27.538-12.301 27.538-27.538 0-15.186-12.301-27.487-27.538-27.487-15.186 0-27.487 12.301-27.487 27.487 0 15.237 12.301 27.538 27.487 27.538zM245.972 260.697c3.898 14.68 18.983 23.387 33.663 19.438 14.68-3.898 23.387-18.983 19.438-33.663-3.898-14.68-18.983-23.387-33.663-19.438-14.68 3.898-23.387 18.983-19.438 33.663zM762.464 504.853c-13.161-7.593-29.968-3.088-37.561 10.074s-3.088 29.968 10.074 37.561c13.161 7.593 29.968 3.088 37.561-10.074 7.644-13.161 3.088-29.968-10.074-37.561zM366.147 179.572c14.629 3.948 29.715-4.758 33.663-19.438s-4.809-29.765-19.438-33.663c-14.68-3.948-29.765 4.758-33.714 19.438-3.898 14.68 4.809 29.765 19.489 33.663zM661.814 653.157c13.161-7.593 17.667-24.399 10.074-37.561s-24.399-17.667-37.561-10.074c-13.161 7.593-17.667 24.399-10.074 37.561s24.399 17.616 37.561 10.074zM510.594 363.665c15.136 0 27.487 12.352 27.487 27.487 0 15.186-12.352 27.538-27.487 27.538-9.416 0-17.667-4.758-22.577-11.845-0.354-0.709-0.658-1.417-1.063-2.075-0.405-0.607-0.759-1.266-1.215-1.873-1.67-3.543-2.683-7.543-2.683-11.744 0-15.136 12.352-27.487 27.538-27.487zM510.594 473.665c45.458 0 82.512-37.004 82.512-82.512 0-45.458-37.055-82.462-82.512-82.462s-82.512 37.004-82.512 82.462c0 5.214 0.506 10.175 1.367 15.085l-75.527 43.635c-13.111 7.593-17.616 24.399-10.074 37.51 7.593 13.161 24.399 17.717 37.561 10.124l75.577-43.686c14.478 12.352 33.157 19.843 53.608 19.843z" />
<glyph unicode="&#xe922;" glyph-name="warning" d="M512.024 335.293c-19.607 0-35.558 11.128-35.558 24.906v211.281c0 13.725 15.951 24.853 35.558 24.853 19.66 0 35.611-11.128 35.611-24.853v-211.281c0-13.725-15.951-24.906-35.611-24.906zM512.024 191.222c-21.886 0-39.638 17.752-39.638 39.691 0 21.886 17.752 39.638 39.638 39.638 21.939 0 39.691-17.752 39.691-39.638 0-21.939-17.752-39.691-39.691-39.691zM512.024 800.477c-33.809 0-64.916-18.759-85.318-51.35l-294.585-514.239c-19.713-31.69-19.66-69.526-0.583-100.156 15.898-31.478 50.343-51.297 85.371-51.297h590.23c37.837 0 68.413 17.858 83.993 48.965l1.749 3.074c18.865 30.1 18.759 67.724-0.265 98.354l-295.804 516.306c-15.262 30.418-49.76 50.343-84.788 50.343zM807.139 9.193h-590.23c-63.061 0-123.314 35.929-149.969 89.345-32.59 51.721-32.643 119.763 1.537 174.451l294.532 514.239c34.551 55.218 89.981 87.438 149.015 87.438 63.008 0 123.367-35.982 150.128-89.504l294.108-513.338c33.173-53.151 33.544-120.187 0.424-174.239-28.457-55.377-84.152-88.391-149.545-88.391z" />
</font>
</defs>
</svg>
